<?xml version="1.0" standalone="no"?>
<!DOCTYPE svg PUBLIC "-//W3C//DTD SVG 20010904//EN"
 "http://www.w3.org/TR/2001/REC-SVG-20010904/DTD/svg10.dtd">
<svg version="1.0" xmlns="http://www.w3.org/2000/svg"
 width="1800.000000pt" height="2460.000000pt" viewBox="0 0 1800.000000 2460.000000"
 preserveAspectRatio="xMidYMid meet">

<g transform="translate(0.000000,2460.000000) scale(0.100000,-0.100000)"
fill="#000000" stroke="none">
<path d="M8363 19302 c-9 -9 -38 -62 -64 -117 -100 -211 -112 -363 -38 -506
33 -66 111 -136 192 -174 119 -56 120 -56 183 9 35 36 69 85 92 134 33 70 37
85 37 162 0 166 -84 300 -279 444 -87 65 -101 70 -123 48z m114 -118 c250
-191 299 -418 132 -608 -23 -25 -47 -46 -55 -46 -29 0 -122 51 -167 91 -28 24
-59 65 -78 104 -27 55 -31 73 -30 146 0 57 7 107 22 154 21 71 87 215 97 215
3 0 39 -25 79 -56z"/>
<path d="M9620 19234 c-198 -52 -341 -154 -391 -280 -33 -83 -33 -242 -1 -326
13 -31 30 -59 38 -62 38 -14 127 -18 190 -7 172 30 280 126 334 296 27 84 41
346 21 383 -16 30 -68 28 -191 -4z m140 -126 c0 -193 -34 -302 -119 -389 -72
-72 -142 -100 -255 -102 -93 -1 -98 3 -116 99 -43 227 85 385 370 459 52 13
101 24 108 25 9 0 12 -25 12 -92z"/>
<path d="M10600 19016 c-98 -70 -212 -191 -249 -265 -42 -82 -57 -173 -43
-248 16 -78 61 -166 118 -232 46 -51 49 -53 88 -47 63 11 160 62 220 117 114
104 152 253 108 427 -35 137 -113 295 -148 299 -10 2 -53 -21 -94 -51z m133
-121 c94 -218 85 -379 -26 -493 -47 -49 -102 -84 -165 -106 l-41 -15 -37 42
c-20 23 -50 71 -67 106 -25 53 -30 76 -30 137 0 65 4 83 37 149 40 81 110 161
206 233 30 22 62 40 70 39 8 -1 32 -42 53 -92z"/>
<path d="M7054 19006 c-10 -41 4 -203 27 -297 58 -244 217 -370 451 -357 55 4
96 11 112 21 53 35 70 250 27 360 -29 74 -112 164 -188 205 -84 44 -223 82
-330 89 l-92 6 -7 -27z m254 -67 c133 -34 247 -111 291 -197 32 -62 44 -154
31 -231 -16 -98 -14 -96 -127 -96 -91 0 -104 3 -165 33 -36 18 -81 49 -99 69
-71 82 -119 231 -119 376 l0 78 58 -7 c31 -3 90 -15 130 -25z"/>
<path d="M6265 18528 c-63 -138 -80 -210 -80 -343 0 -109 2 -125 27 -177 53
-113 157 -195 296 -234 l63 -17 39 38 c45 44 91 127 114 204 43 145 -8 296
-142 423 -81 77 -236 178 -272 178 -6 0 -26 -33 -45 -72z m157 -58 c102 -68
182 -151 221 -229 27 -56 32 -75 31 -141 0 -82 -19 -137 -77 -222 -39 -58 -56
-60 -144 -18 -203 95 -261 281 -171 545 26 74 46 115 57 115 5 0 43 -22 83
-50z"/>
<path d="M11674 18424 c-398 -67 -577 -287 -488 -600 8 -28 22 -58 32 -67 44
-39 244 -27 338 21 108 55 189 172 219 317 21 99 20 308 -1 329 -8 9 -16 16
-17 15 -1 -1 -38 -7 -83 -15z m56 -144 c0 -310 -134 -481 -377 -482 -45 0 -86
3 -92 6 -15 10 -33 103 -33 172 1 92 25 154 84 219 60 66 172 124 288 150 41
9 80 18 85 20 42 14 45 8 45 -85z"/>
<path d="M9923 18396 c-173 -72 -303 -177 -359 -291 -26 -54 -29 -69 -29 -160
1 -109 18 -172 69 -253 25 -41 28 -42 79 -42 106 0 222 45 298 117 119 111
156 284 109 514 -35 168 -35 169 -167 115z m104 -113 c24 -105 24 -270 0 -338
-38 -109 -128 -188 -252 -220 -92 -24 -108 -21 -132 23 -57 101 -67 230 -25
325 26 58 97 135 170 184 49 32 195 103 214 103 4 0 15 -35 25 -77z"/>
<path d="M7731 18266 c-36 -44 -53 -324 -26 -429 52 -200 206 -317 417 -317
64 0 67 1 86 33 68 109 86 281 43 390 -27 69 -107 159 -189 213 -59 39 -221
108 -283 119 -25 5 -39 2 -48 -9z m168 -97 c278 -111 376 -298 280 -536 -21
-52 -22 -53 -63 -53 -111 0 -239 62 -294 142 -63 92 -86 236 -62 402 14 101 5
98 139 45z"/>
<path d="M8904 18158 c-260 -196 -344 -413 -241 -622 21 -40 59 -97 85 -125
59 -63 82 -65 180 -16 262 131 315 380 151 701 -46 90 -65 114 -89 114 -9 0
-48 -23 -86 -52z m151 -158 c45 -106 58 -170 53 -259 -8 -131 -80 -230 -216
-294 l-66 -31 -43 50 c-24 27 -56 74 -71 104 -23 47 -27 68 -27 140 0 72 4 93
27 140 40 81 109 162 194 230 l77 61 20 -33 c11 -18 35 -67 52 -108z"/>
<path d="M10772 17883 c-342 -209 -431 -484 -238 -740 26 -34 55 -65 65 -68
29 -9 142 31 207 73 70 45 124 107 156 178 29 66 36 203 14 297 -27 116 -109
297 -135 297 -4 0 -35 -17 -69 -37z m95 -129 c94 -231 80 -401 -43 -514 -51
-47 -162 -103 -195 -98 -28 4 -92 95 -116 163 -10 30 -17 77 -17 118 2 84 41
170 117 253 53 59 195 165 212 160 6 -1 24 -38 42 -82z"/>
<path d="M12225 17670 c-204 -41 -327 -187 -342 -406 -6 -79 -5 -81 22 -102
16 -12 66 -34 112 -48 70 -22 97 -26 167 -22 106 5 179 39 256 118 74 76 121
160 166 296 34 103 36 116 22 130 -34 34 -294 56 -403 34z m269 -61 c88 -13
86 -5 34 -140 -53 -142 -139 -248 -237 -293 -67 -31 -194 -30 -279 3 -35 13
-66 30 -69 38 -9 22 15 152 37 199 70 160 259 231 514 193z"/>
<path d="M5491 17651 c-43 -12 -47 -31 -22 -133 61 -251 169 -397 330 -448
101 -32 229 -22 327 26 37 18 39 22 44 74 24 236 -105 421 -331 475 -66 15
-300 20 -348 6z m343 -71 c178 -45 264 -151 274 -336 l5 -92 -54 -18 c-36 -13
-82 -19 -139 -19 -73 0 -93 4 -142 28 -107 52 -194 181 -240 355 -18 71 -20
85 -7 93 27 17 221 10 303 -11z"/>
<path d="M6629 17449 c-21 -40 -24 -273 -5 -362 51 -229 198 -347 433 -347 96
0 100 4 134 110 30 91 29 215 -1 293 -32 84 -119 174 -218 225 -83 43 -208 86
-284 97 -42 6 -47 5 -59 -16z m206 -87 c149 -49 262 -144 300 -253 21 -60 19
-165 -6 -244 l-21 -68 -82 5 c-186 12 -303 114 -342 297 -14 69 -18 199 -7
264 6 38 6 39 42 32 20 -4 72 -18 116 -33z"/>
<path d="M9900 17395 c-281 -57 -431 -194 -448 -407 -5 -67 9 -168 30 -214 15
-31 62 -44 165 -44 184 0 309 79 382 242 43 97 55 161 56 303 l0 130 -60 2
c-33 1 -89 -4 -125 -12z m130 -112 c-1 -220 -84 -396 -217 -459 -60 -28 -172
-42 -237 -30 -49 9 -59 36 -60 156 -1 112 17 161 84 234 69 75 165 120 316
150 119 24 114 26 114 -51z"/>
<path d="M7902 17357 c-7 -8 -24 -59 -38 -113 -67 -256 -18 -468 134 -578 58
-43 185 -86 252 -86 49 0 51 1 80 47 45 71 72 150 77 229 14 193 -104 349
-350 464 -104 49 -139 57 -155 37z m154 -107 c273 -135 356 -326 242 -552 -32
-66 -38 -67 -132 -43 -109 29 -196 99 -239 194 -37 81 -35 276 3 414 6 20 14
37 18 37 4 0 53 -23 108 -50z"/>
<path d="M11634 17135 c-139 -25 -222 -63 -301 -137 -95 -91 -138 -231 -114
-375 7 -40 18 -77 25 -82 20 -17 136 -41 197 -41 59 0 142 21 199 50 131 68
229 266 247 502 5 63 3 82 -8 89 -20 13 -162 9 -245 -6z m190 -107 c-23 -215
-103 -366 -224 -427 -75 -37 -147 -47 -239 -31 -82 14 -83 15 -83 129 -1 185
90 299 283 355 65 19 155 33 222 35 l48 1 -7 -62z"/>
<path d="M8998 16820 c-206 -156 -311 -347 -278 -512 16 -83 58 -163 120 -232
63 -69 84 -71 185 -21 197 98 281 280 226 495 -36 141 -128 320 -166 320 -11
0 -50 -23 -87 -50z m133 -124 c58 -121 83 -226 75 -306 -8 -75 -57 -171 -109
-215 -58 -50 -161 -100 -181 -88 -22 12 -96 111 -113 151 -70 166 0 344 200
507 38 30 71 55 73 55 3 0 28 -47 55 -104z"/>
<path d="M5098 16830 c-113 -18 -322 -102 -335 -135 -3 -8 14 -45 37 -83 125
-199 257 -307 410 -334 111 -19 262 34 358 125 30 28 33 37 29 74 -5 48 -54
157 -93 209 -86 113 -244 169 -406 144z m251 -95 c86 -47 165 -154 185 -251 7
-30 4 -34 -53 -72 -85 -56 -146 -75 -234 -70 -97 4 -171 41 -257 127 -59 60
-158 196 -149 205 20 18 156 70 234 90 11 2 65 4 120 3 90 -2 106 -6 154 -32z"/>
<path d="M12580 16709 c-168 -28 -287 -148 -335 -336 -20 -76 -14 -88 58 -136
95 -63 150 -81 257 -81 87 -1 101 2 163 31 114 54 221 172 302 331 20 40 34
79 32 86 -7 17 -137 68 -227 89 -88 21 -184 27 -250 16z m300 -94 c47 -15 89
-31 94 -36 18 -17 -86 -180 -163 -257 -132 -129 -302 -144 -462 -41 -50 32
-51 33 -45 73 10 62 60 156 109 204 24 24 70 54 103 68 54 23 69 24 169 21 84
-3 130 -11 195 -32z"/>
<path d="M10560 16625 c-139 -39 -248 -130 -290 -241 -20 -55 -42 -184 -35
-208 2 -6 6 -23 9 -37 5 -22 18 -32 70 -52 137 -55 253 -56 366 -4 58 27 157
126 198 198 37 66 102 254 102 297 0 27 -5 32 -37 42 -64 19 -319 22 -383 5z
m343 -61 c13 -8 11 -21 -17 -106 -54 -159 -136 -272 -235 -320 -68 -34 -194
-36 -281 -6 l-65 23 -3 45 c-8 97 31 203 98 270 83 83 179 111 361 106 70 -2
133 -7 142 -12z"/>
<path d="M7601 16543 c-41 -164 -28 -382 30 -496 29 -56 96 -125 154 -158 61
-35 173 -61 245 -57 48 3 57 7 75 34 40 59 60 142 60 244 0 84 -4 103 -29 158
-35 75 -132 171 -222 219 -74 39 -231 93 -273 93 -27 0 -31 -4 -40 -37z m199
-74 c264 -102 367 -293 278 -515 l-24 -59 -67 2 c-149 5 -259 80 -316 216 -24
57 -26 73 -26 212 0 83 3 158 8 169 9 23 34 19 147 -25z"/>
<path d="M6018 16405 c-76 -19 -172 -64 -249 -115 -85 -57 -109 -80 -109 -103
0 -30 175 -198 255 -244 102 -60 160 -76 258 -71 66 3 94 9 147 34 73 35 142
92 184 153 l29 41 -33 68 c-47 94 -145 191 -225 221 -76 29 -182 35 -257 16z
m249 -81 c65 -31 133 -99 170 -171 l28 -54 -61 -58 c-34 -32 -83 -68 -109 -81
-64 -31 -164 -38 -238 -16 -72 21 -185 97 -266 180 l-64 65 69 44 c195 126
340 154 471 91z"/>
<path d="M11513 16100 c-65 -23 -96 -44 -156 -109 -46 -49 -98 -144 -112 -203
-14 -55 128 -170 249 -203 182 -49 356 29 518 233 68 86 90 125 82 146 -8 22
-196 112 -284 136 -97 26 -225 27 -297 0z m266 -55 c65 -16 241 -92 241 -105
0 -4 -19 -34 -43 -66 -64 -86 -162 -173 -237 -208 -56 -27 -76 -31 -145 -31
-60 0 -91 6 -125 21 -59 28 -148 94 -156 116 -6 21 24 91 66 152 35 52 104
103 164 122 56 17 158 17 235 -1z"/>
<path d="M9945 16053 c-201 -46 -295 -87 -379 -164 -97 -88 -144 -220 -126
-348 11 -75 36 -156 55 -171 24 -20 153 -24 228 -6 90 21 140 48 199 107 51
51 90 123 115 212 17 64 27 266 16 327 -8 44 -9 45 -48 47 -22 0 -49 -1 -60
-4z m50 -108 c9 -71 -10 -230 -35 -299 -57 -151 -173 -229 -343 -230 -89 -1
-90 0 -108 84 -16 77 -7 187 20 243 51 105 173 186 351 232 52 13 98 24 102
25 4 0 10 -25 13 -55z"/>
<path d="M6965 15984 c-65 -16 -243 -99 -287 -134 -16 -12 -28 -27 -28 -35 0
-39 172 -228 263 -288 131 -87 283 -101 413 -37 76 37 184 135 184 166 0 40
-70 166 -125 223 -79 82 -151 114 -270 118 -56 1 -113 -3 -150 -13z m243 -60
c73 -24 139 -79 184 -154 57 -95 58 -104 12 -151 -22 -22 -68 -54 -103 -72
-125 -61 -245 -46 -377 48 -66 48 -197 190 -191 209 4 17 185 104 247 120 74
20 167 19 228 0z"/>
<path d="M5035 15821 c-154 -42 -278 -103 -283 -138 -5 -32 88 -164 174 -250
190 -187 409 -201 608 -38 58 48 58 48 52 92 -16 118 -121 260 -232 314 -84
42 -211 50 -319 20z m271 -66 c94 -39 163 -114 205 -225 l21 -55 -38 -33 c-21
-18 -68 -47 -103 -65 -56 -27 -76 -32 -141 -32 -66 0 -85 5 -142 33 -84 41
-156 105 -231 207 -54 72 -57 80 -41 92 30 22 165 74 228 89 74 17 188 12 242
-11z"/>
<path d="M8385 15667 c9 -78 -9 -175 -76 -432 -83 -318 -102 -422 -96 -550 4
-84 11 -128 31 -184 56 -160 174 -361 275 -471 l51 -55 -26 60 c-86 199 -93
415 -19 598 l27 68 -21 49 c-27 62 -26 70 5 281 18 115 27 220 28 310 l1 135
-42 85 c-41 83 -108 169 -132 169 -9 0 -11 -16 -6 -63z"/>
<path d="M12545 15687 c-76 -26 -130 -60 -190 -121 -34 -34 -67 -77 -75 -95
-13 -32 -12 -38 14 -87 40 -76 149 -176 223 -204 121 -46 235 -35 380 36 88
44 237 161 241 190 2 16 -18 41 -77 95 -138 128 -263 190 -396 196 -48 2 -96
-2 -120 -10z m245 -77 c63 -25 163 -91 234 -154 l49 -43 -56 -44 c-136 -107
-242 -152 -357 -153 -120 0 -215 53 -290 164 -37 55 -38 58 -23 81 47 71 137
142 207 165 56 19 168 11 236 -16z"/>
<path d="M10677 15590 c-63 -16 -131 -56 -181 -107 -55 -56 -113 -168 -122
-236 -8 -56 7 -78 92 -133 159 -102 336 -97 484 15 36 27 82 70 104 96 61 73
147 217 144 240 -4 25 -60 54 -188 96 -74 24 -117 32 -195 35 -55 2 -117 -1
-138 -6z m231 -66 c71 -14 197 -57 214 -73 13 -12 -92 -162 -158 -227 -145
-144 -303 -161 -472 -51 -60 38 -63 42 -58 71 9 46 52 133 87 177 55 70 160
117 262 118 26 1 83 -6 125 -15z"/>
<path d="M8904 15363 c-1 -180 -13 -248 -72 -383 -44 -102 -45 -144 -8 -226
27 -59 165 -273 190 -293 11 -9 14 13 19 117 3 74 17 185 33 267 22 109 28
170 28 275 1 127 -1 139 -26 193 -25 54 -141 207 -156 207 -4 0 -7 -71 -8
-157z"/>
<path d="M7816 15412 c-3 -6 -2 -21 3 -34 5 -12 12 -57 16 -98 19 -204 78
-709 96 -820 34 -213 76 -352 150 -501 114 -229 252 -389 739 -861 270 -260
293 -290 346 -446 50 -148 67 -281 67 -532 -1 -449 -85 -971 -304 -1885 -33
-137 -64 -267 -70 -288 l-10 -37 -92 50 c-1247 686 -2669 1026 -4052 969 -148
-6 -278 -15 -288 -21 -17 -9 -18 -47 -14 -926 3 -592 8 -949 15 -1007 78 -618
217 -1095 468 -1595 305 -609 722 -1124 1252 -1548 1286 -1027 3044 -1291
4572 -685 599 238 1112 575 1570 1033 768 768 1218 1721 1336 2830 23 213 33
1575 12 1602 -16 21 -137 33 -488 48 -613 28 -1340 -39 -1975 -181 -317 -70
-767 -203 -1026 -302 l-66 -25 -7 351 c-33 1733 -112 2648 -263 3042 -36 91
-96 153 -358 360 -223 176 -366 310 -460 430 -86 110 -109 148 -195 319 -41
82 -79 150 -85 150 -5 0 -31 -41 -58 -91 -175 -333 -89 -678 252 -1012 l96
-94 -85 53 c-230 143 -440 330 -558 496 -159 223 -231 460 -232 759 -1 178
-16 317 -40 372 -26 59 -45 80 -95 105 -44 23 -159 36 -169 20z m-2386 -4572
c1573 -97 3046 -651 4280 -1610 459 -356 935 -825 1297 -1275 268 -334 530
-724 737 -1099 141 -254 362 -714 354 -736 -9 -25 -386 -334 -417 -342 -6 -2
-42 68 -80 154 -851 1941 -2503 3441 -4520 4103 -427 140 -900 247 -1341 305
-316 41 -474 51 -867 57 l-393 6 0 213 c0 118 1 215 3 215 32 17 720 23 947 9z
m7890 -270 c91 -6 180 -13 198 -16 l32 -5 0 -212 0 -212 -447 0 c-472 0 -604
-7 -953 -51 -812 -101 -1665 -355 -2341 -695 -45 -22 -87 -38 -94 -36 -6 3
-65 44 -130 92 -65 47 -169 120 -231 162 -62 42 -111 81 -107 86 9 15 409 207
596 286 830 350 1729 559 2602 604 154 8 727 6 875 -3z m-8265 -260 c413 -18
780 -62 1170 -140 2051 -413 3839 -1693 4911 -3515 140 -239 358 -680 461
-931 6 -17 -420 -284 -453 -284 -5 0 -32 53 -59 118 -73 174 -259 543 -370
737 -185 323 -460 720 -695 1000 -308 370 -697 749 -1066 1041 -859 682 -1904
1169 -2970 1388 -437 89 -807 131 -1251 143 l-253 6 0 218 0 218 88 4 c188 7
265 6 487 -3z m8473 -276 c22 -6 22 -7 22 -223 l0 -216 -184 4 c-202 4 -547
-12 -781 -35 -758 -75 -1486 -269 -2192 -584 l-162 -72 -118 104 c-65 57 -162
139 -215 182 -54 43 -98 80 -98 82 0 6 119 65 250 124 816 368 1680 580 2615
640 150 9 825 5 863 -6z m-8543 -264 c1421 -92 2752 -598 3877 -1473 691 -537
1302 -1235 1754 -2002 136 -232 346 -655 440 -891 6 -12 -168 -97 -351 -170
-71 -29 -130 -52 -131 -51 -1 1 -29 65 -63 142 -422 950 -1108 1841 -1926
2501 -1033 834 -2266 1344 -3575 1479 -117 12 -457 35 -516 35 -12 0 -14 39
-14 220 l0 220 173 0 c95 0 244 -5 332 -10z m8453 -257 l112 -6 0 -142 c0 -78
-3 -176 -6 -217 l-7 -75 -206 -7 c-894 -30 -1704 -210 -2511 -558 l-125 -54
-197 197 -197 197 152 67 c807 357 1648 555 2525 594 235 11 330 12 460 4z
m-8508 -289 c1426 -129 2769 -715 3845 -1676 688 -615 1270 -1402 1640 -2220
41 -92 75 -169 75 -172 0 -13 -507 -156 -513 -145 -1 2 -50 101 -109 219 -313
630 -691 1153 -1203 1666 -244 245 -355 345 -570 516 -950 754 -2116 1235
-3295 1359 -107 11 -214 22 -236 25 l-42 5 -11 108 c-7 60 -16 162 -19 226
l-7 118 140 -7 c77 -4 214 -14 305 -22z m8595 -296 c-9 -71 -54 -359 -60 -378
-4 -13 -39 -18 -187 -28 -709 -49 -1466 -236 -2117 -525 l-54 -24 -100 121
c-55 67 -135 160 -178 207 l-78 86 167 71 c504 212 972 348 1506 437 346 58
604 81 909 84 l198 1 -6 -52z m-8735 -243 c2113 -224 4015 -1548 4993 -3474
59 -117 106 -215 104 -218 -12 -12 -453 -73 -527 -73 -21 0 -31 10 -54 58
-124 254 -410 690 -640 977 -222 277 -547 613 -811 839 -886 757 -1974 1257
-3096 1422 l-117 17 -30 126 c-30 122 -72 323 -72 343 0 5 22 7 53 4 28 -3
117 -13 197 -21z m8650 -246 c0 -19 -40 -169 -82 -313 -33 -108 -46 -140 -62
-146 -12 -5 -79 -16 -151 -25 -502 -65 -1097 -231 -1582 -443 l-92 -40 -61 89
c-34 49 -104 146 -156 216 l-94 128 52 23 c537 238 1215 421 1808 487 303 33
420 40 420 24z m-8575 -328 c1808 -313 3366 -1414 4286 -3030 49 -85 89 -159
89 -163 0 -9 -444 -8 -542 1 l-66 6 -120 180 c-221 333 -453 616 -742 906
-242 243 -467 436 -735 630 -597 433 -1333 778 -2022 947 l-153 37 -35 85
c-42 98 -116 301 -138 378 -12 38 -13 52 -4 52 7 0 89 -13 182 -29z m8389
-288 c-42 -111 -103 -252 -154 -353 l-48 -95 -213 -54 c-327 -82 -694 -208
-975 -336 l-72 -33 -81 137 c-44 75 -105 174 -135 221 -30 47 -52 88 -48 92
14 14 251 111 423 173 213 78 497 161 717 210 184 41 484 93 594 103 15 2 14
-6 -8 -65z m-8169 -343 c584 -157 1185 -430 1700 -772 344 -229 590 -432 906
-747 241 -241 372 -389 541 -611 92 -121 254 -353 276 -396 l11 -21 -102 14
c-153 20 -303 49 -487 94 l-165 40 -122 142 c-619 723 -1398 1285 -2253 1624
-63 26 -121 51 -128 56 -35 27 -289 465 -337 580 -12 29 -12 37 -2 37 7 0 80
-18 162 -40z m7858 -307 c-73 -128 -202 -323 -296 -448 l-75 -100 -88 -34
c-49 -19 -162 -67 -252 -107 l-163 -73 -64 132 c-35 73 -88 178 -118 234 l-55
102 107 47 c162 71 359 146 536 204 176 58 467 138 502 139 20 1 18 -7 -34
-96z m-7457 -459 c632 -272 1215 -663 1713 -1149 187 -183 405 -418 392 -423
-13 -4 -245 81 -380 140 -630 274 -1196 693 -1643 1217 -97 113 -222 271 -215
271 2 0 62 -25 133 -56z m6886 -321 c-44 -48 -108 -115 -141 -147 l-60 -60
-31 68 c-16 37 -30 71 -30 76 0 7 83 46 280 133 30 14 57 23 59 21 2 -2 -33
-43 -77 -91z"/>
<path d="M11515 15207 c-22 -8 -60 -24 -85 -37 -58 -30 -170 -137 -170 -163 0
-41 70 -164 124 -219 78 -80 147 -111 257 -116 111 -5 199 15 312 72 121 61
167 93 167 116 0 25 -106 156 -178 220 -31 28 -94 69 -140 92 -74 37 -92 42
-165 45 -50 2 -98 -2 -122 -10z m202 -65 c33 -10 87 -37 120 -60 63 -43 203
-186 203 -208 0 -17 -115 -81 -199 -112 -42 -15 -97 -26 -151 -29 -105 -6
-177 17 -245 80 -51 47 -115 150 -115 183 0 26 63 84 125 117 97 50 169 58
262 29z"/>
<path d="M6790 15170 c-83 -18 -151 -60 -235 -144 -85 -86 -188 -245 -183
-281 4 -25 83 -65 204 -101 121 -36 271 -39 356 -5 118 46 204 143 248 281 30
92 23 111 -57 166 -108 74 -231 105 -333 84z m230 -95 c30 -15 69 -39 87 -52
l32 -24 -16 -52 c-73 -249 -279 -329 -580 -227 -48 16 -90 33 -95 38 -10 10
50 109 111 184 55 69 123 123 188 149 73 29 199 22 273 -16z"/>
<path d="M9277 15093 c-4 -3 -7 -39 -7 -78 0 -93 -25 -187 -99 -379 -62 -158
-79 -224 -67 -270 6 -24 200 -256 215 -256 3 0 5 33 3 74 -4 83 11 174 62 391
49 202 55 301 26 378 -13 35 -40 77 -64 103 -42 43 -56 51 -69 37z"/>
<path d="M5594 14940 c-33 -11 -89 -38 -125 -61 -70 -45 -234 -207 -245 -242
-8 -26 22 -53 133 -119 263 -155 498 -139 644 44 45 57 89 141 89 172 0 33
-131 153 -206 188 -89 41 -198 48 -290 18z m269 -78 c35 -17 86 -54 114 -83
l52 -52 -24 -46 c-36 -72 -109 -146 -173 -178 -79 -39 -193 -39 -301 0 -80 28
-231 114 -231 131 0 19 165 170 224 205 117 70 229 77 339 23z"/>
<path d="M12251 14695 c-78 -22 -148 -63 -210 -122 -49 -47 -53 -55 -47 -85
23 -118 145 -267 252 -308 87 -33 182 -37 285 -11 91 22 273 107 303 140 19
20 18 22 -17 75 -49 74 -150 181 -220 232 -106 79 -238 109 -346 79z m187 -67
c88 -22 227 -134 301 -242 17 -25 31 -46 31 -49 0 -2 -45 -25 -100 -51 -221
-104 -374 -98 -499 19 -49 46 -111 150 -111 185 0 24 68 84 131 116 83 42 146
47 247 22z"/>
<path d="M10049 14676 c-139 -53 -230 -152 -275 -300 l-18 -59 59 -55 c139
-129 313 -159 475 -80 44 22 89 56 145 112 88 87 178 215 173 243 -4 22 -139
91 -241 124 -89 28 -261 37 -318 15z m262 -65 c85 -22 219 -79 219 -94 0 -10
-76 -117 -113 -158 -49 -54 -138 -118 -194 -139 -113 -42 -254 -12 -362 78
-30 26 -33 33 -27 64 10 56 78 159 132 201 89 68 204 84 345 48z"/>
<path d="M10940 14518 c-92 -14 -235 -91 -261 -139 -7 -13 -5 -38 6 -81 83
-317 353 -418 725 -270 41 16 79 37 85 46 14 22 -48 138 -126 239 -124 159
-273 230 -429 205z m205 -90 c93 -48 205 -171 269 -295 l16 -32 -53 -19 c-221
-83 -377 -81 -493 6 -55 42 -106 120 -131 200 -21 66 -16 75 63 119 83 46 108
53 199 49 62 -2 91 -8 130 -28z"/>
<path d="M6127 14200 c-109 -28 -221 -121 -295 -245 -51 -86 -104 -219 -100
-248 9 -62 383 -99 511 -50 149 56 242 180 266 356 11 79 8 88 -43 120 -94 59
-248 90 -339 67z m225 -80 c80 -30 98 -46 98 -84 0 -56 -37 -158 -78 -211 -99
-131 -293 -168 -535 -104 -46 12 -45 13 19 144 47 97 123 191 186 231 87 55
204 64 310 24z"/>
<path d="M7610 14124 c-168 -45 -267 -152 -305 -329 -21 -102 -16 -291 11
-377 7 -23 43 -23 115 -2 245 70 395 185 443 338 34 108 4 308 -55 367 -24 24
-126 25 -209 3z m183 -81 c28 -65 40 -132 34 -199 -13 -163 -134 -280 -367
-355 -101 -32 -95 -38 -105 97 -16 208 45 366 171 440 46 27 144 52 210 53 38
1 42 -2 57 -36z"/>
<path d="M11468 13830 c-91 -16 -249 -106 -263 -151 -8 -25 19 -117 55 -190
88 -173 274 -251 490 -205 126 27 266 83 277 112 8 21 -14 69 -79 165 -101
151 -223 244 -353 268 -64 12 -60 12 -127 1z m207 -89 c66 -32 191 -158 243
-246 50 -83 50 -82 -68 -119 -176 -56 -285 -57 -390 -5 -91 46 -169 153 -186
255 -5 35 -3 41 23 60 85 63 149 84 248 81 61 -2 92 -8 130 -26z"/>
<path d="M10188 13501 c-70 -23 -144 -65 -157 -90 -12 -22 1 -127 24 -191 68
-192 241 -294 471 -276 85 7 231 38 266 57 30 16 19 63 -47 196 -71 142 -155
237 -253 285 -58 29 -78 33 -157 35 -66 2 -105 -2 -147 -16z m277 -73 c59 -30
119 -86 164 -151 47 -68 116 -217 105 -226 -19 -18 -163 -43 -249 -44 -152 -1
-253 42 -321 138 -37 53 -74 157 -74 211 0 29 5 36 43 55 75 39 118 49 202 46
62 -3 91 -9 130 -29z"/>
<path d="M6749 13486 c-140 -37 -249 -161 -293 -332 -20 -78 -40 -257 -32
-289 9 -34 39 -39 143 -26 255 34 405 118 477 271 29 61 31 72 31 180 -1 154
-13 184 -85 199 -66 14 -183 13 -241 -3z m247 -71 c18 -24 28 -116 20 -181
-21 -184 -195 -311 -450 -331 l-79 -6 6 95 c11 171 77 320 168 384 71 49 133
65 233 60 70 -3 92 -7 102 -21z"/>
<path d="M7971 13090 c-145 -53 -262 -203 -330 -424 -28 -92 -27 -102 12 -115
118 -37 346 -39 449 -2 175 61 278 215 278 417 0 51 -2 56 -32 74 -107 65
-275 88 -377 50z m208 -51 c24 -5 67 -19 94 -31 l49 -21 -6 -64 c-26 -250
-208 -369 -513 -335 -58 6 -108 14 -111 16 -8 8 40 140 76 209 96 186 241 266
411 226z"/>
</g>
</svg>
